<?xml version="1.0" encoding="UTF-8"?>
<svg id="Layer_1" data-name="Layer 1" xmlns="http://www.w3.org/2000/svg" viewBox="0 0 640.77 141.48">
  <defs>
    <style>
      .cls-1 {
        fill: #dfe222;
      }
    </style>
  </defs>
  <g>
    <polygon class="cls-1" points="169.99 99.22 142.24 99.22 118.39 26.26 116.99 26.26 100.66 76.53 115.19 76.53 115.19 99.22 66.78 99.22 102.91 0 133.87 0 169.99 99.22"/>
    <polygon class="cls-1" points="640.77 99.22 613.02 99.22 589.17 26.26 587.77 26.26 571.44 76.53 585.97 76.53 585.97 99.22 537.56 99.22 573.69 0 604.65 0 640.77 99.22"/>
    <path class="cls-1" d="M187.21,99.22L151.09-.04h27.76l23.85,72.99h1.39L227.8-.04h26.5l-36.12,99.26h-30.96Z"/>
    <path class="cls-1" d="M266.5,58.06V0h24.27v57.52c0,13.9,7.25,20.04,20.92,20.04s20.78-6.13,20.78-20.04V0h24.27v58.06c0,28.62-16.18,41.16-45.05,41.16s-45.19-12.54-45.19-41.16Z"/>
    <path class="cls-1" d="M393.28,77.27v21.95h47.78v-21.95h-47.78ZM368.94,77.16h24.26V0h-24.26v77.16Z"/>
    <g>
      <rect class="cls-1" y="63.59" width="23.93" height="35.63"/>
      <rect class="cls-1" x=".04" y="20.4" width="23.93" height="22.31"/>
      <path class="cls-1" d="M66.66,17.63c-1.96-4.28-4.76-7.86-8.41-10.76-3.06-2.42-6.86-4.19-11.42-5.32C42.28.54,34.66.02,23.97,0v20.42h1.79c6.52,0,11.05.85,13.58,2.56,2.53,1.71,3.79,4.53,3.79,8.46s-1.3,6.98-3.9,8.62c-2.69,1.77-7.27,2.66-13.75,2.66h-1.52v20.87h5.9c8.71,0,14.82-.45,18.33-1.36,3.92-.91,7.27-2.4,10.05-4.47,3.87-2.81,6.68-6.35,8.41-10.63,1.96-4.23,2.94-9.21,2.94-14.91,0-5.36-.98-10.22-2.94-14.59Z"/>
    </g>
    <path class="cls-1" d="M477.58,77.27v21.95h47.78v-21.95h-47.78ZM453.25,77.16h24.26V0h-24.26v77.16Z"/>
  </g>
  <g>
    <path class="cls-1" d="M382.56,128.2c0-6.02,3.52-8.96,8.17-8.96,3.76,0,6.99,2.19,7.45,5.93h-2.22c-.46-2.53-2.65-4-5.23-4-3.42,0-5.93,2.29-5.93,7.04s2.51,6.99,5.93,6.99c2.58,0,4.77-1.47,5.23-4.02h2.22c-.46,3.81-3.69,5.95-7.45,5.95-4.65,0-8.17-2.94-8.17-8.91Z"/>
    <path class="cls-1" d="M399.54,130.56c0-4.43,2.75-6.55,6.51-6.55s6.5,2.12,6.5,6.55-2.7,6.55-6.5,6.55-6.51-2.12-6.51-6.55ZM410.41,130.56c0-3.25-1.81-4.79-4.36-4.79s-4.36,1.54-4.36,4.79,1.81,4.79,4.36,4.79,4.36-1.57,4.36-4.79Z"/>
    <path class="cls-1" d="M414.48,136.78v-6.79c0-4.1,2.29-5.98,6.02-5.98s6.02,1.71,6.02,5.81v6.96h-2.1v-6.96c0-2.84-1.54-4-3.93-4s-3.9,1.28-3.9,4.17v6.79h-2.12Z"/>
    <path class="cls-1" d="M430.25,136.78v-10.63h-2.24v-1.81h2.24v-1.04c0-3.01,1.45-4.07,3.61-4.07.72,0,1.42.07,2.22.19v1.71c-.63-.07-1.18-.12-1.66-.12-1.37,0-2.05.46-2.05,2.36v.96h3.71v1.81h-3.71v10.63h-2.12Z"/>
    <path class="cls-1" d="M436.97,120.93c0-.8.58-1.37,1.37-1.37s1.37.58,1.37,1.37-.58,1.37-1.37,1.37-1.37-.58-1.37-1.37ZM437.29,136.78v-12.43h2.12v12.43h-2.12Z"/>
    <path class="cls-1" d="M441.33,130.56c0-4.24,2.55-6.55,5.9-6.55,1.78,0,3.4.58,4.53,2.17h.24l.24-1.83h1.85v12.43h-1.85l-.24-1.9h-.24c-1.11,1.64-2.7,2.24-4.53,2.24-3.35,0-5.9-2.29-5.9-6.55ZM452.03,130.56c0-3.16-1.81-4.77-4.29-4.77s-4.26,1.73-4.26,4.77,1.78,4.77,4.26,4.77,4.29-1.61,4.29-4.77ZM446.51,122.61l1.98-3.85h2.6l-2.79,3.85h-1.78Z"/>
    <path class="cls-1" d="M460.05,136.78l-5.23-12.43h2.31l3.98,9.78h.24l3.98-9.78h2.24l-5.25,12.43h-2.27Z"/>
    <path class="cls-1" d="M467.68,130.56c0-4.31,2.75-6.55,6.29-6.55s6.02,2.41,6.02,6.38c0,.19-.02.58-.05.75h-10.17c.19,2.75,1.93,4.29,4.19,4.29,1.37,0,2.7-.67,3.32-1.9h2.1c-.72,2.34-2.92,3.59-5.42,3.59-3.93,0-6.29-2.63-6.29-6.55ZM477.78,129.53c-.22-2.39-1.76-3.83-3.86-3.83s-3.81,1.35-4.07,3.83h7.93Z"/>
    <path class="cls-1" d="M481.92,136.78v-17.2h2.12v17.2h-2.12Z"/>
    <path class="cls-1" d="M485.96,135.36c0-.87.67-1.54,1.59-1.54s1.54.67,1.54,1.54c0,.92-.67,1.59-1.54,1.59-.92,0-1.59-.67-1.59-1.59Z"/>
    <path class="cls-1" d="M497.52,136.78v-17.2h6.53c4.58,0,8.29,2.31,8.29,8.6s-3.71,8.6-8.29,8.6h-6.53ZM499.69,134.85h4.36c3.37,0,6.07-1.78,6.07-6.67s-2.7-6.67-6.07-6.67h-4.36v13.35Z"/>
    <path class="cls-1" d="M513.95,120.93c0-.8.58-1.37,1.37-1.37s1.37.58,1.37,1.37-.58,1.37-1.37,1.37-1.37-.58-1.37-1.37ZM514.26,136.78v-12.43h2.12v12.43h-2.12Z"/>
    <path class="cls-1" d="M518.98,137.77v-.17h2.1c0,1.54,1.21,2.34,3.61,2.34s4.29-1.3,4.29-4.34v-1.69h-.24c-1.11,1.61-2.7,2.24-4.53,2.24-3.35,0-5.9-2.14-5.9-6.07s2.55-6.07,5.9-6.07c1.78,0,3.4.58,4.53,2.17h.24l.24-1.83h1.85v11.11c0,4.65-3.3,6.24-6.36,6.24-3.86,0-5.73-1.52-5.73-3.93ZM528.98,130.08c0-2.65-1.81-4.29-4.26-4.29s-4.29,1.54-4.29,4.29,1.76,4.29,4.29,4.29,4.26-1.64,4.26-4.29Z"/>
    <path class="cls-1" d="M533.17,120.93c0-.8.58-1.37,1.37-1.37s1.37.58,1.37,1.37-.58,1.37-1.37,1.37-1.37-.58-1.37-1.37ZM533.48,136.78v-12.43h2.12v12.43h-2.12Z"/>
    <path class="cls-1" d="M540.35,136.78v-10.63h-3.06v-1.81h3.06v-3.33h2.12v3.33h3.37v1.81h-3.37v10.63h-2.12Z"/>
    <path class="cls-1" d="M546.18,130.56c0-4.24,2.55-6.55,5.9-6.55,1.78,0,3.4.58,4.53,2.17h.24l.24-1.83h1.85v12.43h-1.85l-.24-1.9h-.24c-1.11,1.64-2.7,2.24-4.53,2.24-3.35,0-5.9-2.29-5.9-6.55ZM556.87,130.56c0-3.16-1.81-4.77-4.29-4.77s-4.26,1.73-4.26,4.77,1.78,4.77,4.26,4.77,4.29-1.61,4.29-4.77Z"/>
    <path class="cls-1" d="M561.35,136.78v-17.2h2.12v17.2h-2.12Z"/>
    <path class="cls-1" d="M565.4,135.36c0-.87.67-1.54,1.59-1.54.87,0,1.54.67,1.54,1.54,0,.92-.67,1.59-1.54,1.59-.92,0-1.59-.67-1.59-1.59Z"/>
    <path class="cls-1" d="M576.96,136.78v-17.2h2.17v15.27h9.28v1.93h-11.44Z"/>
    <path class="cls-1" d="M588.9,130.56c0-4.43,2.75-6.55,6.51-6.55s6.5,2.12,6.5,6.55-2.7,6.55-6.5,6.55-6.51-2.12-6.51-6.55ZM599.77,130.56c0-3.25-1.81-4.79-4.36-4.79s-4.36,1.54-4.36,4.79,1.81,4.79,4.36,4.79,4.36-1.57,4.36-4.79Z"/>
    <path class="cls-1" d="M603.36,130.56c0-4.43,2.84-6.55,6.29-6.55,2.77,0,5.18,1.57,5.59,4.34h-2.07c-.31-1.57-1.83-2.58-3.52-2.58-2.36,0-4.14,1.66-4.14,4.79s1.78,4.79,4.14,4.79c1.69,0,3.2-1.04,3.52-2.58h2.07c-.41,2.75-2.82,4.34-5.59,4.34-3.45,0-6.29-2.12-6.29-6.55Z"/>
    <path class="cls-1" d="M616.48,130.56c0-4.24,2.55-6.55,5.9-6.55,1.78,0,3.4.58,4.53,2.17h.24l.24-1.83h1.85v12.43h-1.85l-.24-1.9h-.24c-1.11,1.64-2.7,2.24-4.53,2.24-3.35,0-5.9-2.29-5.9-6.55ZM627.18,130.56c0-3.16-1.81-4.77-4.29-4.77s-4.26,1.73-4.26,4.77,1.78,4.77,4.26,4.77,4.29-1.61,4.29-4.77Z"/>
    <path class="cls-1" d="M631.66,136.78v-17.2h2.12v17.2h-2.12Z"/>
    <path class="cls-1" d="M635.7,135.36c0-.87.67-1.54,1.59-1.54s1.54.67,1.54,1.54c0,.92-.67,1.59-1.54,1.59-.92,0-1.59-.67-1.59-1.59Z"/>
  </g>
</svg>